<?xml version="1.0" standalone="no"?><!DOCTYPE svg PUBLIC "-//W3C//DTD SVG 1.1//EN" "http://www.w3.org/Graphics/SVG/1.1/DTD/svg11.dtd"><svg t="1687871079860" class="icon" viewBox="0 0 1024 1024" version="1.1" xmlns="http://www.w3.org/2000/svg" p-id="1937" xmlns:xlink="http://www.w3.org/1999/xlink" width="200" height="200"><path d="M512 0v1024" fill="" p-id="1938"></path><path d="M387.878788 0h19.095571v1024H387.878788z" fill="#F2F2F2" p-id="1939"></path><path d="M406.974359 0h19.095571v1024H406.974359z" fill="" p-id="1940"></path><path d="M426.06993 0h19.095571v1024H426.06993z" fill="#F2F2F2" p-id="1941"></path><path d="M445.165501 0h19.095571v1024h-19.095571z" fill="" p-id="1942"></path><path d="M464.261072 0H483.356643v1024h-19.095571z" fill="#F2F2F2" p-id="1943"></path><path d="M483.356643 0h19.095571v1024H483.356643z" fill="" p-id="1944"></path><path d="M502.452214 0h19.095572v1024h-19.095572z" fill="#F2F2F2" p-id="1945"></path><path d="M521.547786 0h19.095571v1024h-19.095571z" fill="" p-id="1946"></path><path d="M540.643357 0h19.095571v1024h-19.095571z" fill="#F2F2F2" p-id="1947"></path><path d="M559.738928 0H578.834499v1024h-19.095571z" fill="" p-id="1948"></path><path d="M578.834499 0h19.095571v1024H578.834499zM617.025641 0h19.095571v1024h-19.095571z" fill="#F2F2F2" p-id="1949"></path><path d="M597.93007 0h19.095571v1024h-19.095571z" fill="" p-id="1950"></path></svg>